<?xml version="1.0" encoding="UTF-8" standalone="no"?>
<svg
   version="1.0"
   width="2942.5569pt"
   height="3616.8645pt"
   viewBox="0 0 2942.5569 3616.8645"
   preserveAspectRatio="xMidYMid meet"
   id="svg8"
   sodipodi:docname="influx.svg"
   inkscape:version="1.1 (c68e22c387, 2021-05-23)"
   inkscape:export-filename="E:\PROJECT\SITE\PERSONAL\INFLUX\LOGO\influx.png"
   inkscape:export-xdpi="72.002701"
   inkscape:export-ydpi="72.002701"
   xmlns:inkscape="http://www.inkscape.org/namespaces/inkscape"
   xmlns:sodipodi="http://sodipodi.sourceforge.net/DTD/sodipodi-0.dtd"
   xmlns="http://www.w3.org/2000/svg"
   xmlns:svg="http://www.w3.org/2000/svg">
  <defs
     id="defs12">
    <rect
       x="-2518.6897"
       y="3068.7483"
       width="5153.1812"
       height="2287.0862"
       id="rect3431" />
  </defs>
  <sodipodi:namedview
     id="namedview10"
     pagecolor="#ffffff"
     bordercolor="#999999"
     borderopacity="1"
     inkscape:pageshadow="0"
     inkscape:pageopacity="0"
     inkscape:pagecheckerboard="0"
     inkscape:document-units="pt"
     showgrid="false"
     inkscape:zoom="0.125"
     inkscape:cx="-5144"
     inkscape:cy="4744"
     inkscape:window-width="3840"
     inkscape:window-height="2126"
     inkscape:window-x="-11"
     inkscape:window-y="-11"
     inkscape:window-maximized="1"
     inkscape:current-layer="svg8"
     fit-margin-top="150"
     fit-margin-left="150"
     fit-margin-right="150"
     fit-margin-bottom="150"
     lock-margins="true" />
  <metadata
     id="metadata2">
Created by potrace 1.12, written by Peter Selinger 2001-2015
</metadata>
  <g
     id="g1095"
     transform="matrix(4.5681775,0,0,4.5681775,413.44617,150.04141)">
    <g
       transform="matrix(0.1,0,0,-0.1,-28.359513,511.53189)"
       fill="#000000"
       stroke="none"
       id="g6">
      <path
         d="m 2522,5110 c -108,-23 -226,-109 -272,-200 -28,-54 -50,-145 -50,-201 v -48 l -107,-64 c -60,-36 -326,-192 -593,-347 -267,-156 -492,-288 -501,-293 -13,-8 -28,-2 -69,31 -76,61 -147,85 -250,85 -133,0 -233,-48 -316,-153 -54,-69 -78,-141 -78,-245 -1,-81 2,-97 31,-157 42,-90 100,-150 186,-193 38,-19 76,-35 83,-35 12,0 14,-120 14,-730 0,-577 -3,-730 -12,-730 -34,0 -140,-63 -188,-111 -155,-155 -155,-403 0,-559 144,-143 370,-156 529,-29 28,22 55,39 59,37 4,-1 280,-162 612,-356 l 605,-353 1,-72 c 4,-160 102,-300 252,-358 79,-31 205,-31 284,0 150,58 248,198 252,358 l 1,72 605,353 c 332,194 608,355 612,356 4,2 31,-15 59,-37 75,-60 147,-84 249,-84 133,0 233,48 316,153 54,69 77,141 77,246 1,80 -3,98 -30,157 -42,89 -100,149 -186,192 -38,19 -76,35 -83,35 -12,0 -14,119 -14,729 v 728 l 59,22 c 67,24 129,70 177,131 105,132 105,348 0,480 -83,105 -183,153 -316,153 -102,0 -174,-24 -249,-84 -28,-22 -55,-39 -59,-37 -4,1 -280,162 -612,356 l -605,353 -1,72 c -4,205 -159,365 -366,381 -35,3 -82,1 -106,-4 z m 159,-165 c 24,-9 63,-34 86,-57 153,-150 48,-402 -167,-402 -138,0 -234,97 -234,234 0,169 157,280 315,225 z m -388,-480 37,-44 -79,-138 c -134,-234 -612,-1048 -619,-1055 -4,-4 -133,66 -287,156 -251,147 -280,166 -277,187 4,31 4,187 0,218 -3,21 48,53 552,347 482,281 634,370 635,373 1,1 18,-19 38,-44 z m 1262,-313 580,-340 -5,-38 c -7,-58 -6,-155 2,-191 l 7,-31 -177,-105 c -337,-198 -387,-226 -394,-219 -6,6 -514,870 -655,1115 l -45,77 37,45 c 29,36 40,43 53,35 9,-5 278,-162 597,-348 z m -1044,178 c 5,0 9,-277 9,-689 v -688 l -59,-22 c -32,-12 -82,-40 -110,-62 -28,-22 -55,-39 -59,-37 -5,1 -124,71 -265,153 -190,111 -255,154 -251,165 6,16 434,750 597,1023 71,120 104,166 114,163 8,-4 19,-6 24,-6 z m 571,-590 c 191,-327 348,-597 348,-600 0,-4 -499,-299 -522,-308 -4,-2 -31,15 -59,37 -28,22 -78,50 -110,62 l -59,22 v 688 c 0,714 -1,701 39,696 8,-1 172,-270 363,-597 z M 763,3904 c 85,-29 157,-132 157,-224 0,-84 -55,-171 -134,-212 -56,-30 -155,-31 -211,-1 -86,45 -129,117 -129,213 0,170 155,279 317,224 z m 3838,1 c 24,-9 63,-34 86,-57 153,-150 48,-402 -167,-402 -138,0 -234,97 -234,234 0,169 157,280 315,225 z M 1266,3247 c 154,-90 278,-167 277,-171 -1,-8 -534,-921 -656,-1124 -57,-95 -84,-132 -94,-128 -8,3 -19,6 -24,6 -5,0 -9,293 -9,729 v 728 l 59,22 c 33,12 81,39 108,61 26,22 51,39 54,40 4,0 132,-73 285,-163 z m 2992,132 c 35,-31 146,-89 170,-89 9,0 12,-152 12,-729 v -729 l -22,-6 c -13,-3 -28,0 -34,7 -15,17 -723,1230 -725,1242 -1,8 423,265 437,265 2,0 29,16 61,35 32,19 60,35 62,35 2,0 19,-14 39,-31 z m -2306,-533 263,-154 -5,-38 c -7,-58 -6,-155 2,-191 7,-30 5,-33 -55,-68 -103,-62 -1130,-661 -1156,-675 -19,-10 -26,-9 -38,3 -13,13 -7,29 54,134 110,192 668,1143 670,1143 1,0 120,-69 265,-154 z m 1927,-467 c 200,-342 364,-629 365,-637 4,-50 -29,-33 -644,326 -557,326 -615,362 -612,383 4,31 4,187 0,218 -3,21 25,40 257,176 143,85 262,154 265,154 3,1 169,-279 369,-620 z m -1196,405 c 85,-29 157,-132 157,-224 0,-84 -55,-171 -134,-212 -56,-30 -155,-31 -211,-1 -86,45 -129,117 -129,213 0,170 155,279 317,224 z m -345,-525 c 35,-31 146,-89 170,-89 9,0 12,-72 12,-325 v -325 h -724 -724 l -6,22 c -3,13 -2,26 2,30 7,7 1002,589 1112,651 30,17 69,39 85,49 17,10 32,18 34,18 2,0 19,-14 39,-31 z m 1178,-325 c 335,-195 613,-359 617,-364 5,-4 6,-17 2,-29 l -6,-21 h -725 -724 v 324 323 l 59,22 c 33,12 81,39 108,61 26,22 51,39 54,40 3,0 280,-160 615,-356 z M 786,1652 c 84,-43 128,-117 128,-212 0,-215 -247,-319 -401,-168 -132,129 -75,340 107,399 38,13 123,3 166,-19 z m 3840,0 c 84,-43 128,-117 128,-212 0,-220 -261,-323 -407,-160 -68,76 -85,165 -46,250 59,130 204,184 325,122 z M 2520,1075 c 0,-221 -3,-285 -12,-285 -37,0 -141,-64 -195,-118 l -58,-60 -590,345 c -324,189 -594,348 -598,353 -5,4 -6,17 -2,29 l 6,21 h 725 724 z m 1615,264 c 4,-12 3,-25 -2,-29 -4,-5 -273,-164 -598,-353 l -590,-344 -48,53 c -45,50 -166,124 -203,124 -12,0 -14,51 -14,285 v 285 h 724 725 z M 2706,612 c 84,-43 128,-117 128,-212 0,-215 -247,-319 -401,-168 -132,129 -75,340 107,399 38,13 123,3 166,-19 z"
         id="path4" />
    </g>
    <ellipse
       style="fill:#6372f2;fill-opacity:1;stroke:none;stroke-width:115.736;stroke-linecap:round;stroke-linejoin:round;paint-order:stroke fill markers"
       id="path851"
       cx="231.99995"
       cy="39.556789"
       rx="24.491728"
       ry="24.378723" />
    <ellipse
       style="fill:#6372f2;fill-opacity:1;stroke:none;stroke-width:115.736;stroke-linecap:round;stroke-linejoin:round;paint-order:stroke fill markers"
       id="path851-0"
       cx="423.65509"
       cy="143.21748"
       rx="24.491728"
       ry="24.378723" />
    <ellipse
       style="fill:#6372f2;fill-opacity:1;stroke:none;stroke-width:115.736;stroke-linecap:round;stroke-linejoin:round;paint-order:stroke fill markers"
       id="path851-8"
       cx="40.062504"
       cy="143.45737"
       rx="24.491728"
       ry="24.378723" />
    <ellipse
       style="fill:#6372f2;fill-opacity:1;stroke:none;stroke-width:115.736;stroke-linecap:round;stroke-linejoin:round;paint-order:stroke fill markers"
       id="path851-9"
       cx="232.45854"
       cy="255.24858"
       rx="24.491728"
       ry="24.378723" />
    <ellipse
       style="fill:#6372f2;fill-opacity:1;stroke:none;stroke-width:115.736;stroke-linecap:round;stroke-linejoin:round;paint-order:stroke fill markers"
       id="path851-91"
       cx="423.65509"
       cy="367.99936"
       rx="24.491728"
       ry="24.378723" />
    <ellipse
       style="fill:#6372f2;fill-opacity:1;stroke:none;stroke-width:115.736;stroke-linecap:round;stroke-linejoin:round;paint-order:stroke fill markers"
       id="path851-84"
       cx="231.73883"
       cy="471.63412"
       rx="24.491728"
       ry="24.378723" />
    <ellipse
       style="fill:#6372f2;fill-opacity:1;stroke:none;stroke-width:115.736;stroke-linecap:round;stroke-linejoin:round;paint-order:stroke fill markers"
       id="path851-2"
       cx="39.582726"
       cy="367.51956"
       rx="24.491728"
       ry="24.378723" />
  </g>
  <text
     xml:space="preserve"
     transform="matrix(0.90140648,0,0,0.90140648,2323.0111,-261.77352)"
     id="text3429"
     style="font-style:normal;font-weight:normal;font-size:1200px;line-height:1.25;font-family:sans-serif;white-space:pre;shape-inside:url(#rect3431);fill:#6372f2;fill-opacity:1;stroke:none"><tspan
       x="-2518.6895"
       y="4130.4668"
       id="tspan20342"><tspan
         style="font-family:Giorgio;-inkscape-font-specification:Giorgio"
         id="tspan20340">Influx</tspan></tspan></text>
</svg>
